{
  "asset": {
    "version": "2.0",
    "generator": "RevolverArena deterministic low-poly generator",
    "extras": {
      "upAxis": "+Y",
      "forwardAxis": "-Z",
      "weaponOrigin": "Grip center",
      "transformsApplied": "Rotation and scale baked into geometry"
    }
  },
  "scene": 0,
  "scenes": [
    {
      "name": "Revolver",
      "nodes": [
        0,
        1,
        2,
        3,
        4,
        5,
        6
      ]
    }
  ],
  "nodes": [
    {
      "name": "Handle",
      "mesh": 0,
      "extras": {
        "animationAxis": null
      }
    },
    {
      "name": "Frame",
      "mesh": 1,
      "extras": {
        "animationAxis": null
      }
    },
    {
      "name": "Barrel",
      "mesh": 2,
      "extras": {
        "animationAxis": null
      }
    },
    {
      "name": "Cylinder",
      "mesh": 3,
      "extras": {
        "animationAxis": "+X"
      },
      "translation": [
        0.0,
        0.9039999999999999,
        -0.512
      ]
    },
    {
      "name": "Hammer",
      "mesh": 4,
      "extras": {
        "animationAxis": "+X"
      },
      "translation": [
        0.0,
        1.192,
        0.24
      ]
    },
    {
      "name": "Trigger",
      "mesh": 5,
      "extras": {
        "animationAxis": null
      }
    },
    {
      "name": "FrontSight",
      "mesh": 6,
      "extras": {
        "animationAxis": null
      }
    }
  ],
  "meshes": [
    {
      "name": "Handle",
      "primitives": [
        {
          "attributes": {
            "POSITION": 0,
            "NORMAL": 1
          },
          "indices": 2,
          "material": 2,
          "mode": 4
        },
        {
          "attributes": {
            "POSITION": 3,
            "NORMAL": 4
          },
          "indices": 5,
          "material": 0,
          "mode": 4
        }
      ]
    },
    {
      "name": "Frame",
      "primitives": [
        {
          "attributes": {
            "POSITION": 6,
            "NORMAL": 7
          },
          "indices": 8,
          "material": 0,
          "mode": 4
        }
      ]
    },
    {
      "name": "Barrel",
      "primitives": [
        {
          "attributes": {
            "POSITION": 9,
            "NORMAL": 10
          },
          "indices": 11,
          "material": 0,
          "mode": 4
        }
      ]
    },
    {
      "name": "Cylinder",
      "primitives": [
        {
          "attributes": {
            "POSITION": 12,
            "NORMAL": 13
          },
          "indices": 14,
          "material": 1,
          "mode": 4
        },
        {
          "attributes": {
            "POSITION": 15,
            "NORMAL": 16
          },
          "indices": 17,
          "material": 0,
          "mode": 4
        }
      ]
    },
    {
      "name": "Hammer",
      "primitives": [
        {
          "attributes": {
            "POSITION": 18,
            "NORMAL": 19
          },
          "indices": 20,
          "material": 0,
          "mode": 4
        }
      ]
    },
    {
      "name": "Trigger",
      "primitives": [
        {
          "attributes": {
            "POSITION": 21,
            "NORMAL": 22
          },
          "indices": 23,
          "material": 0,
          "mode": 4
        }
      ]
    },
    {
      "name": "FrontSight",
      "primitives": [
        {
          "attributes": {
            "POSITION": 24,
            "NORMAL": 25
          },
          "indices": 26,
          "material": 1,
          "mode": 4
        }
      ]
    }
  ],
  "materials": [
    {
      "name": "DarkMetal",
      "pbrMetallicRoughness": {
        "baseColorFactor": [
          0.11,
          0.14,
          0.16,
          1.0
        ],
        "metallicFactor": 0.72,
        "roughnessFactor": 0.41
      },
      "doubleSided": false
    },
    {
      "name": "CylinderMetal",
      "pbrMetallicRoughness": {
        "baseColorFactor": [
          0.25,
          0.3,
          0.33,
          1.0
        ],
        "metallicFactor": 0.72,
        "roughnessFactor": 0.35
      },
      "doubleSided": false
    },
    {
      "name": "WoodGrip",
      "pbrMetallicRoughness": {
        "baseColorFactor": [
          0.37,
          0.16,
          0.08,
          1.0
        ],
        "metallicFactor": 0.0,
        "roughnessFactor": 0.66
      },
      "doubleSided": false
    }
  ],
  "accessors": [
    {
      "bufferView": 0,
      "componentType": 5126,
      "count": 36,
      "type": "VEC3",
      "min": [
        -0.296,
        -0.7280000000000001,
        -0.08000000000000002
      ],
      "max": [
        0.296,
        0.528,
        0.536
      ]
    },
    {
      "bufferView": 1,
      "componentType": 5126,
      "count": 36,
      "type": "VEC3"
    },
    {
      "bufferView": 2,
      "componentType": 5123,
      "count": 36,
      "type": "SCALAR",
      "min": [
        0
      ],
      "max": [
        35
      ]
    },
    {
      "bufferView": 3,
      "componentType": 5126,
      "count": 36,
      "type": "VEC3",
      "min": [
        -0.328,
        -0.7880000000000001,
        0.06000000000000001
      ],
      "max": [
        0.328,
        -0.684,
        0.5800000000000001
      ]
    },
    {
      "bufferView": 4,
      "componentType": 5126,
      "count": 36,
      "type": "VEC3"
    },
    {
      "bufferView": 5,
      "componentType": 5123,
      "count": 36,
      "type": "SCALAR",
      "min": [
        0
      ],
      "max": [
        35
      ]
    },
    {
      "bufferView": 6,
      "componentType": 5126,
      "count": 252,
      "type": "VEC3",
      "min": [
        -0.472,
        -0.18800000000000003,
        -0.9720000000000001
      ],
      "max": [
        0.472,
        1.5360000000000003,
        0.44800000000000006
      ]
    },
    {
      "bufferView": 7,
      "componentType": 5126,
      "count": 252,
      "type": "VEC3"
    },
    {
      "bufferView": 8,
      "componentType": 5123,
      "count": 252,
      "type": "SCALAR",
      "min": [
        0
      ],
      "max": [
        251
      ]
    },
    {
      "bufferView": 9,
      "componentType": 5126,
      "count": 312,
      "type": "VEC3",
      "min": [
        -0.376,
        0.536,
        -2.3960000000000004
      ],
      "max": [
        0.376,
        1.3040000000000003,
        -0.9359999999999999
      ]
    },
    {
      "bufferView": 10,
      "componentType": 5126,
      "count": 312,
      "type": "VEC3"
    },
    {
      "bufferView": 11,
      "componentType": 5123,
      "count": 312,
      "type": "SCALAR",
      "min": [
        0
      ],
      "max": [
        311
      ]
    },
    {
      "bufferView": 12,
      "componentType": 5126,
      "count": 360,
      "type": "VEC3",
      "min": [
        -0.576,
        -0.5519999999999999,
        -0.5249831969949248
      ],
      "max": [
        0.576,
        0.5519999999999999,
        0.5249831969949248
      ]
    },
    {
      "bufferView": 13,
      "componentType": 5126,
      "count": 360,
      "type": "VEC3"
    },
    {
      "bufferView": 14,
      "componentType": 5123,
      "count": 360,
      "type": "SCALAR",
      "min": [
        0
      ],
      "max": [
        359
      ]
    },
    {
      "bufferView": 15,
      "componentType": 5126,
      "count": 1344,
      "type": "VEC3",
      "min": [
        -0.614,
        -0.42800000000000005,
        -0.38191273890184685
      ],
      "max": [
        0.614,
        0.42800000000000005,
        0.3819127389018469
      ]
    },
    {
      "bufferView": 16,
      "componentType": 5126,
      "count": 1344,
      "type": "VEC3"
    },
    {
      "bufferView": 17,
      "componentType": 5123,
      "count": 1344,
      "type": "SCALAR",
      "min": [
        0
      ],
      "max": [
        1343
      ]
    },
    {
      "bufferView": 18,
      "componentType": 5126,
      "count": 132,
      "type": "VEC3",
      "min": [
        -0.236,
        -0.128,
        -0.128
      ],
      "max": [
        0.236,
        0.5519999999999999,
        0.528
      ]
    },
    {
      "bufferView": 19,
      "componentType": 5126,
      "count": 132,
      "type": "VEC3"
    },
    {
      "bufferView": 20,
      "componentType": 5123,
      "count": 132,
      "type": "SCALAR",
      "min": [
        0
      ],
      "max": [
        131
      ]
    },
    {
      "bufferView": 21,
      "componentType": 5126,
      "count": 36,
      "type": "VEC3",
      "min": [
        -0.08800000000000001,
        -0.08800000000000001,
        -0.44000000000000006
      ],
      "max": [
        0.08800000000000001,
        0.248,
        -0.296
      ]
    },
    {
      "bufferView": 22,
      "componentType": 5126,
      "count": 36,
      "type": "VEC3"
    },
    {
      "bufferView": 23,
      "componentType": 5123,
      "count": 36,
      "type": "SCALAR",
      "min": [
        0
      ],
      "max": [
        35
      ]
    },
    {
      "bufferView": 24,
      "componentType": 5126,
      "count": 36,
      "type": "VEC3",
      "min": [
        -0.10400000000000001,
        1.2160000000000002,
        -2.248
      ],
      "max": [
        0.10400000000000001,
        1.512,
        -2.096
      ]
    },
    {
      "bufferView": 25,
      "componentType": 5126,
      "count": 36,
      "type": "VEC3"
    },
    {
      "bufferView": 26,
      "componentType": 5123,
      "count": 36,
      "type": "SCALAR",
      "min": [
        0
      ],
      "max": [
        35
      ]
    }
  ],
  "bufferViews": [
    {
      "buffer": 0,
      "byteOffset": 0,
      "byteLength": 432,
      "target": 34962
    },
    {
      "buffer": 0,
      "byteOffset": 432,
      "byteLength": 432,
      "target": 34962
    },
    {
      "buffer": 0,
      "byteOffset": 864,
      "byteLength": 72,
      "target": 34963
    },
    {
      "buffer": 0,
      "byteOffset": 936,
      "byteLength": 432,
      "target": 34962
    },
    {
      "buffer": 0,
      "byteOffset": 1368,
      "byteLength": 432,
      "target": 34962
    },
    {
      "buffer": 0,
      "byteOffset": 1800,
      "byteLength": 72,
      "target": 34963
    },
    {
      "buffer": 0,
      "byteOffset": 1872,
      "byteLength": 3024,
      "target": 34962
    },
    {
      "buffer": 0,
      "byteOffset": 4896,
      "byteLength": 3024,
      "target": 34962
    },
    {
      "buffer": 0,
      "byteOffset": 7920,
      "byteLength": 504,
      "target": 34963
    },
    {
      "buffer": 0,
      "byteOffset": 8424,
      "byteLength": 3744,
      "target": 34962
    },
    {
      "buffer": 0,
      "byteOffset": 12168,
      "byteLength": 3744,
      "target": 34962
    },
    {
      "buffer": 0,
      "byteOffset": 15912,
      "byteLength": 624,
      "target": 34963
    },
    {
      "buffer": 0,
      "byteOffset": 16536,
      "byteLength": 4320,
      "target": 34962
    },
    {
      "buffer": 0,
      "byteOffset": 20856,
      "byteLength": 4320,
      "target": 34962
    },
    {
      "buffer": 0,
      "byteOffset": 25176,
      "byteLength": 720,
      "target": 34963
    },
    {
      "buffer": 0,
      "byteOffset": 25896,
      "byteLength": 16128,
      "target": 34962
    },
    {
      "buffer": 0,
      "byteOffset": 42024,
      "byteLength": 16128,
      "target": 34962
    },
    {
      "buffer": 0,
      "byteOffset": 58152,
      "byteLength": 2688,
      "target": 34963
    },
    {
      "buffer": 0,
      "byteOffset": 60840,
      "byteLength": 1584,
      "target": 34962
    },
    {
      "buffer": 0,
      "byteOffset": 62424,
      "byteLength": 1584,
      "target": 34962
    },
    {
      "buffer": 0,
      "byteOffset": 64008,
      "byteLength": 264,
      "target": 34963
    },
    {
      "buffer": 0,
      "byteOffset": 64272,
      "byteLength": 432,
      "target": 34962
    },
    {
      "buffer": 0,
      "byteOffset": 64704,
      "byteLength": 432,
      "target": 34962
    },
    {
      "buffer": 0,
      "byteOffset": 65136,
      "byteLength": 72,
      "target": 34963
    },
    {
      "buffer": 0,
      "byteOffset": 65208,
      "byteLength": 432,
      "target": 34962
    },
    {
      "buffer": 0,
      "byteOffset": 65640,
      "byteLength": 432,
      "target": 34962
    },
    {
      "buffer": 0,
      "byteOffset": 66072,
      "byteLength": 72,
      "target": 34963
    }
  ],
  "buffers": [
    {
      "byteLength": 66144,
      "uri": "data:application/octet-stream;base64,"
    }
  ]
}